<svg xmlns="http://www.w3.org/2000/svg" xmlns:xlink="http://www.w3.org/1999/xlink" viewBox="0 0 163 160">
  <defs>
    <style>
      .cls-1 {
        clip-path: url(#clip-Logo);
      }

      .cls-2, .cls-3 {
        fill: #344c62;
      }

      .cls-2 {
        stroke: #95989a;
      }

      .cls-4 {
        fill: #5d88b0;
      }

      .cls-5 {
        fill: none;
        stroke: #e9ecf0;
      }

      .cls-6 {
        fill: #e9ecf0;
      }
    </style>
    <clipPath id="clip-Logo">
      <rect width="163" height="160"/>
    </clipPath>
  </defs>
  <g id="Logo" class="cls-1">
    <rect class="cls-6" width="163" height="160"/>
    <g id="Logo-2" data-name="Logo" transform="translate(-188.5 -100.5)">
      <g id="Tiles" transform="translate(-72 43)">
        <path id="Path_4" data-name="Path 4" class="cls-2" d="M.5,12.5l41-23v46l-41,23Z" transform="translate(341.5 67.5)"/>
        <path id="Path_5" data-name="Path 5" class="cls-3" d="M.5,12.5l41-23v46l-41,23Z" transform="translate(300.5 90.5)"/>
        <path id="Path_11" data-name="Path 11" class="cls-3" d="M.5,12.5l41-23v46l-41,23Z" transform="translate(259.5 113.5)"/>
        <path id="Path_8" data-name="Path 8" class="cls-3" d="M.5,12.5l41-23v46l-41,23Z" transform="translate(300.5 136.5)"/>
        <path id="Path_2" data-name="Path 2" class="cls-4" d="M.5.5l41,23v46l-41-23Z" transform="translate(341.5 79.5)"/>
        <path id="Path_10" data-name="Path 10" class="cls-4" d="M.5.5l41,23v46l-41-23Z" transform="translate(259.5 125.5)"/>
        <path id="Path_7" data-name="Path 7" class="cls-4" d="M.5.5l41,23v46l-41-23Z" transform="translate(341.5 125.5)"/>
        <path id="Path_6" data-name="Path 6" class="cls-4" d="M.5.5l41,23v46l-41-23Z" transform="translate(382.5 102.5)"/>
        <path id="Path_9" data-name="Path 9" class="cls-3" d="M.5,12.5l41-23v46l-41,23Z" transform="translate(341.5 159.5)"/>
      </g>
      <g id="Lines">
        <line id="Line_8" data-name="Line 8" class="cls-5" y2="161" transform="translate(270 100)"/>
        <line id="Line_13" data-name="Line 13" class="cls-5" y2="161" transform="translate(352 101)"/>
        <line id="Line_10" data-name="Line 10" class="cls-5" y2="138" transform="translate(229 100)"/>
        <line id="Line_12" data-name="Line 12" class="cls-5" y2="161" transform="translate(188 100)"/>
        <line id="Line_9" data-name="Line 9" class="cls-5" y2="161" transform="translate(311 100)"/>
        <line id="Line_8-2" data-name="Line 8" class="cls-5" y1="69" x2="123" transform="translate(188 100)"/>
        <line id="Line_9-2" data-name="Line 9" class="cls-5" y1="23" x2="41" transform="translate(229 169)"/>
        <line id="Line_10-2" data-name="Line 10" class="cls-5" y1="69" x2="123" transform="translate(188 192)"/>
        <line id="Line_11" data-name="Line 11" class="cls-5" y1="23" x2="41" transform="translate(270 238)"/>
        <line id="Line_14" data-name="Line 14" class="cls-5" x2="82" y2="46" transform="translate(270 169)"/>
        <line id="Line_16" data-name="Line 16" class="cls-5" x2="41" y2="23" transform="translate(188 169)"/>
        <line id="Line_15" data-name="Line 15" class="cls-5" x2="82" y2="46" transform="translate(270 123)"/>
      </g>
    </g>
  </g>
</svg>
